<svg xmlns:xlink="http://www.w3.org/1999/xlink" width="340" xmlns="http://www.w3.org/2000/svg" height="293" id="screenshot-3ab8d9d9-68ca-8014-8004-111a27809400" viewBox="0 0 340 293" style="-webkit-print-color-adjust: exact;" fill="none" version="1.1">

<g id="shape-3ab8d9d9-68ca-8014-8004-111a27809400" rx="0" ry="0">

<g id="shape-3ab8d9d9-68ca-8014-8004-111a27809401">
<g class="fills" id="fills-3ab8d9d9-68ca-8014-8004-111a27809401">
<path rx="0" ry="0" d="M0.000,0.000L170.000,193.000L340.000,0.000L210.000,57.000L170.000,181.000L130.000,57.000L0.000,0.000Z" style="fill: rgb(98, 69, 193); fill-opacity: 1;">
<animate id="top" attributeName="fill" values="rgb(98, 69, 193);#9170ff;rgb(98, 69, 193)" begin="mid.begin+0.05" dur="0.2s" />
</path>
</g>
</g>

<g id="shape-3ab8d9d9-68ca-8014-8004-111a27809402">
<g class="fills" id="fills-3ab8d9d9-68ca-8014-8004-111a27809402">
<path rx="0" ry="0" d="M0.000,0.000L65.500,135.500L170.000,277.000L274.500,135.500L340.000,0.000L170.000,185.000L0.000,0.000Z" style="fill: rgb(60, 24, 115); fill-opacity: 1;">
<animate id="mid" attributeName="fill" values="rgb(60, 24, 115);#7043c1;rgb(60, 24, 115)" begin="bot.begin+0.05" dur="0.2s" />
</path>
</g>
</g>

<g id="shape-3ab8d9d9-68ca-8014-8004-111a27809403">
<g class="fills" id="fills-3ab8d9d9-68ca-8014-8004-111a27809403">
<path rx="0" ry="0" d="M65.500,135.500L130.000,269.000C130.000,269.000,143.333,293.000,170.000,293.000C196.000,293.000,210.000,269.000,210.000,269.000L274.500,135.500L170.000,267.000L65.500,135.500Z" style="fill: rgb(31, 7, 71); fill-opacity: 1;">
<animate id="bot" attributeName="fill" values="rgb(31, 7, 71);#663aaa;rgb(31, 7, 71)" begin="2s;top.end+4s" dur="0.2s" />
</path>
</g>
</g>

</g>
</svg>